<svg width="800" height="400" xmlns="http://www.w3.org/2000/svg">
  <marker id="arrow" viewBox="0 0 10 10" refX="9" refY="5" markerWidth="6" markerHeight="6" orient="auto">
    <path d="M 0 0 L 10 5 L 0 10 z" fill="black" />
  </marker>
  <text x="85" y="205">input</text>
  <g stroke="black" marker-end="url(#arrow)" transform="translate(0, -100)">
    <path d="M135 140 L300 200" />
    <path d="M135 220 L300 200" />
    <path d="M135 300 L300 200" />
    <path d="M135 380 L300 200" />
    <path d="M135 460 L300 200" />
    <path d="M135 140 L300 300" />
    <path d="M135 220 L300 300" />
    <path d="M135 300 L300 300" />
    <path d="M135 380 L300 300" />
    <path d="M135 460 L300 300" />
    <path d="M135 140 L300 400" />
    <path d="M135 220 L300 400" />
    <path d="M135 300 L300 400" />
    <path d="M135 380 L300 400" />
    <path d="M135 460 L300 400" />
    <path d="M300 200 L450 150" />
    <path d="M300 300 L450 150" />
    <path d="M300 400 L450 150" />
    <path d="M300 200 L450 250" />
    <path d="M300 300 L450 250" />
    <path d="M300 400 L450 250" />
    <path d="M300 200 L450 350" />
    <path d="M300 300 L450 350" />
    <path d="M300 400 L450 350" />
    <path d="M300 200 L450 450" />
    <path d="M300 300 L450 450" />
    <path d="M300 400 L450 450" />
    <path d="M450 150 L600 300" />
    <path d="M450 250 L600 300" />
    <path d="M450 350 L600 300" />
    <path d="M450 450 L600 300" />
  </g>
  <g transform="translate(300, 100)">
    <circle cx="0" cy="0" r="15" fill="white" stroke="black"/>
    <circle cx="0" cy="100" r="15" fill="white" stroke="black"/>
    <circle cx="0" cy="200" r="15" fill="white" stroke="black"/>
  </g>
  <g transform="translate(450, 50)">
    <circle cx="0" cy="0" r="15" fill="white" stroke="black"/>
    <circle cx="0" cy="100" r="15" fill="white" stroke="black"/>
    <circle cx="0" cy="200" r="15" fill="white" stroke="black"/>
    <circle cx="0" cy="300" r="15" fill="white" stroke="black"/>
  </g>
  <g transform="translate(600, 200)">
    <path d="M0 0 L100 0" stroke="black" marker-end="url(#arrow)"/>
    <text x="110" y="5">output</text>
    <circle cx="0" cy="0" r="15" fill="white" stroke="black"/>
  </g>
</svg>